<?xml version="1.0" standalone="no"?>
<!DOCTYPE svg PUBLIC "-//W3C//DTD SVG 20010904//EN"
 "http://www.w3.org/TR/2001/REC-SVG-20010904/DTD/svg10.dtd">
<svg version="1.0" xmlns="http://www.w3.org/2000/svg"
 width="408.000000pt" height="408.000000pt" viewBox="0 0 408.000000 408.000000"
 preserveAspectRatio="xMidYMid meet">
<metadata>
Created by potrace 1.14, written by Peter Selinger 2001-2017
</metadata>
<g transform="translate(0.000000,408.000000) scale(0.100000,-0.100000)"
fill="#000000" stroke="none">
<path d="M1830 4070 c-132 -17 -160 -22 -257 -45 -94 -22 -201 -54 -248 -74
-159 -67 -242 -108 -385 -192 -84 -50 -234 -173 -340 -279 -175 -174 -300
-351 -403 -570 -75 -158 -143 -367 -161 -495 -6 -42 -11 -69 -22 -120 -13 -63
-12 -410 2 -510 15 -111 59 -314 79 -360 6 -16 18 -48 24 -70 47 -148 160
-362 278 -523 76 -104 86 -115 208 -237 191 -192 412 -339 670 -447 97 -40
309 -101 400 -115 17 -2 36 -6 43 -8 53 -18 442 -27 552 -13 243 32 434 88
640 185 267 126 509 312 688 528 97 118 89 108 153 205 113 173 206 382 258
581 33 127 40 164 60 314 8 68 7 404 -2 455 -3 14 -8 48 -11 75 -4 28 -18 97
-31 154 -89 373 -272 699 -545 971 -197 197 -409 339 -675 452 -108 46 -334
108 -445 122 -25 3 -56 9 -70 12 -39 9 -398 12 -460 4z"/>
</g>
</svg>
